<?xml version="1.0" encoding="utf-8"?>
<!-- Generator: Adobe Illustrator 21.0.0, SVG Export Plug-In . SVG Version: 6.00 Build 0)  -->
<svg version="1.1" id="Layer_1" xmlns="http://www.w3.org/2000/svg" xmlns:xlink="http://www.w3.org/1999/xlink" x="0px" y="0px"
	 viewBox="0 0 454 454" style="enable-background:new 0 0 454 454;" xml:space="preserve">
<style type="text/css">
	.st0{fill:#FFFFFF;}
</style>
<path class="st0" d="M407,54.5H115.6c-1.7-0.7-3.5-0.7-5.2,0H47c-25.9,0-47,21.1-47,47V353c0,25.9,21.1,47,47,47h360
	c25.9,0,47-21.1,47-47V101.5C454,75.6,432.9,54.5,407,54.5z M440,101.5V279H169.2c10.8-6.4,17.4-18,17.4-30.5
	c0-19.7-16.3-35.8-36.2-35.8c-12.2,0-23.6,6.1-30.4,16.3V68.5h287C425.2,68.5,440,83.3,440,101.5z M53.4,248.5
	c0.1-12.1,10.1-21.9,22.2-21.8c4,0,7.8,1,11.3,3c5.5,3.1,9.3,8.5,10.6,14.7l6.1,31.4l-32.1-6C61.1,268,53.5,259,53.4,248.5z
	 M122.4,275.9l6.1-31.4c2.3-11.1,12.6-18.6,23.8-17.6c11.3,1,20,10.3,20.2,21.7c-0.1,10.5-7.7,19.5-18,21.4L122.4,275.9z M47,68.5
	h59V229c-3.1-4.7-7.2-8.6-12.1-11.4c-5.6-3.2-11.9-4.9-18.3-4.9c-20,0-36.2,16-36.2,35.8c0,12.5,6.6,24.1,17.4,30.5H14V101.5
	C14,83.3,28.8,68.5,47,68.5z M14,353v-60h82.1l-33.1,33.1c-2.7,2.7-2.7,7.2,0,9.9s7.2,2.7,9.9,0l33.1-33.1V386H47
	C28.8,386,14,371.2,14,353z M407,386H120v-83.1l44.6,44.6c2.7,2.7,7.2,2.7,9.9,0s2.7-7.2,0-9.9L129.9,293H440v60
	C440,371.2,425.2,386,407,386z"/>
</svg>
