<?xml version="1.0" encoding="utf-8"?>
<!-- Generator: Adobe Illustrator 21.0.0, SVG Export Plug-In . SVG Version: 6.00 Build 0)  -->
<svg version="1.1" id="Capa_1" xmlns="http://www.w3.org/2000/svg" xmlns:xlink="http://www.w3.org/1999/xlink" x="0px" y="0px"
	 viewBox="0 0 512 512" style="enable-background:new 0 0 512 512;" xml:space="preserve">
<style type="text/css">
	.st0{fill:#FFFFFF;}
</style>
<path class="st0" d="M507.5,180.3L387.9,60.8c-2.9-2.9-6.8-4.5-11-4.5s-8,1.6-11,4.5l-38.6,38.6c-2.9,2.9-4.5,6.8-4.5,11
	c0,3.7,1.3,7.2,3.7,10L310.9,136c-16.6-7.3-35.4-8-52.5-2.3c-19.2-5.8-39.8-5.1-57.6,2l-15.3-15.3c2.4-2.8,3.7-6.3,3.7-10
	c0-4.1-1.6-8-4.5-11L146,60.8c-2.9-2.9-6.8-4.5-11-4.5c-4.1,0-8,1.6-11,4.5L4.5,180.3c-6,6-6,15.9,0,21.9l38.6,38.6
	c2.9,2.9,6.8,4.5,11,4.5c3.4,0,6.5-1.1,9.2-3l56.5,56.5c-1,0.8-1.9,1.6-2.8,2.5l-15.1,15.1c-13.1,13.1-13.1,34.3,0,47.3
	c6.5,6.5,15.1,9.8,23.7,9.8c1.2,0,2.3-0.1,3.5-0.2c-1,9.7,2.2,19.7,9.6,27.1c6.5,6.5,15.1,9.8,23.7,9.8c2.6,0,5.3-0.3,7.9-0.9
	c0.1,8.4,3.4,16.9,9.8,23.3c6.5,6.5,15.1,9.8,23.7,9.8c3.9,0,7.9-0.7,11.6-2.1l5,5c6.8,6.8,16.1,10.3,25.3,10.3c8,0,15.9-2.6,21.8-8
	c6.7-6,10.6-14.2,11.1-23.1c11.4,3.7,24.3,1.7,33.1-6.2c6.6-6,10.5-14,11-22.9c11.5,3.9,24.6,1.9,33.5-6.1c6.6-6,10.5-14.1,11-22.9
	c11.5,3.8,24.6,1.9,33.4-6.1c6.9-6.2,10.9-14.8,11.1-24c0.2-9.1-3.3-18.1-9.8-24.6l-11.3-11.3l58.1-58.1c2.6,2,5.8,3,9.2,3
	c4.1,0,8-1.6,11-4.5l38.6-38.6C513.5,196.2,513.5,186.4,507.5,180.3z M112.5,353.2c-7.2-7.2-7.2-18.9,0-26.1l15.1-15.1
	c3.6-3.6,8.3-5.4,13.1-5.4s9.5,1.8,13.1,5.4c7.2,7.2,7.2,18.9,0,26.1l-15.1,15.1C131.5,360.4,119.8,360.4,112.5,353.2z M149.3,390
	c-3.5-3.5-5.4-8.1-5.4-13.1s1.9-9.6,5.4-13.1l7.9-7.9c3.6-3.6,8.3-5.4,13.1-5.4s9.5,1.8,13.1,5.4c7.2,7.2,7.2,18.9,0,26.1l-7.9,7.9
	c-3.5,3.5-8.1,5.4-13.1,5.4C157.4,395.4,152.8,393.4,149.3,390z M190.6,422.1c-7.2-7.2-7.2-18.9,0-26.1c3.6-3.6,8.3-5.4,13.1-5.4
	c4.7,0,9.5,1.8,13.1,5.4c7.2,7.2,7.2,18.9,0,26.1C209.6,429.3,197.8,429.3,190.6,422.1z M396.7,336c-0.1,5.1-2.3,9.8-6.1,13.3
	c-6.8,6.1-19.4,5.3-26.4-1.7l-28.4-28.4c-2.9-2.9-7.7-2.9-10.6,0s-2.9,7.7,0,10.6l21.7,21.7c3.6,3.6,5.5,8.4,5.4,13.6
	c-0.1,5.1-2.3,9.8-6.1,13.3c-6.8,6.1-19.4,5.3-26.4-1.7l-28.5-28.5c-2.9-2.9-7.7-2.9-10.6,0s-2.9,7.7,0,10.6l21.7,21.7
	c3.6,3.6,5.5,8.4,5.4,13.6c-0.1,5.1-2.3,9.8-6.1,13.3c-6.8,6.1-19.4,5.3-26.4-1.7L247,377.4c-2.9-2.9-7.7-2.9-10.6,0
	c-2.9,2.9-2.9,7.7,0,10.6l21.7,21.7l0,0c3.6,3.6,5.5,8.4,5.4,13.5s-2.3,9.8-6.1,13.3c-6.8,6.1-19.4,5.3-26.4-1.7l-2.9-2.9
	c12.3-13.1,12.1-33.8-0.7-46.6c-6.7-6.7-15.5-9.9-24.3-9.8c2.1-10.6-0.9-22.1-9.1-30.3c-6-6-13.6-9.2-21.5-9.7
	c3.8-11.6,1.1-25-8.1-34.2c-8.2-8.2-19.5-11.2-30.1-9.2L74.1,232l2.6-2.6c2.9-2.9,2.9-7.7,0-10.6c-2.9-2.9-7.7-2.9-10.6,0
	l-11.5,11.5c0,0-0.2,0.2-0.4,0.2s-0.3-0.1-0.4-0.2l-38.6-38.6c-0.2-0.2-0.2-0.5,0-0.7L134.7,71.4c0,0,0.2-0.2,0.4-0.2
	s0.3,0.1,0.4,0.2l38.6,38.6c0,0,0.2,0.2,0.2,0.4c0,0.2-0.1,0.3-0.2,0.4L61.7,223.1c-2.9,2.9-2.9,7.7,0,10.6c2.9,2.9,7.7,2.9,10.6,0
	l102.6-102.6l18.9,18.9c1.4,1.4,3.4,2.2,5.3,2.2c1.1,0,2.2-0.2,3.2-0.7c10.4-5,22.7-7.1,35-6.3c-2.4,1.8-4.6,3.8-6.8,6l-41.1,41.1
	c-13.1,13.1-13.1,34.3,0,47.3c6.3,6.3,14.7,9.8,23.7,9.8c8.9,0,17.4-3.5,23.7-9.8l29.8-29.8c3.3-3.3,8.7-3.3,12.1,0l112.7,112.7
	C394.9,326.1,396.8,330.9,396.7,336z M496.9,191.7l-38.6,38.6c0,0-0.2,0.2-0.4,0.2c-0.2,0-0.3-0.1-0.4-0.2L348.8,121.4
	c-2.9-2.9-7.8-3.3-10.7-0.4c-2.9,2.9-2.9,7.7,0,10.6L437.9,232l-58,58l-90.7-90.7c-9.2-9.2-24.1-9.2-33.3,0L226.2,229
	c-7.2,7.2-18.9,7.2-26.1,0c-7.2-7.2-7.2-18.9,0-26.1l41.1-41.1c22.4-22.4,58.8-22.4,81.2,0c2.9,2.9,7.7,2.9,10.6,0s2.9-7.7,0-10.6
	c-2.7-2.7-5.6-5.2-8.6-7.3l12.7-12.7l4.7,4.3c2.9,2.9,5.1,0.8,8-2.2c2.9-2.9,2.9-7.7,0-10.6L338,110.8c0,0-0.2-0.2-0.2-0.4
	c0-0.2,0.1-0.3,0.2-0.4l38.6-38.6c0,0,0.2-0.2,0.4-0.2c0.2,0,0.3,0.1,0.4,0.2l119.5,119.5C497.1,191.2,497.1,191.5,496.9,191.7z"/>
</svg>
