<?xml version="1.0" encoding="utf-8"?>
<!-- Generator: Adobe Illustrator 21.0.0, SVG Export Plug-In . SVG Version: 6.00 Build 0)  -->
<svg version="1.1" id="Layer_1" xmlns="http://www.w3.org/2000/svg" xmlns:xlink="http://www.w3.org/1999/xlink" x="0px" y="0px"
	 viewBox="0 0 512 512" style="enable-background:new 0 0 512 512;" xml:space="preserve">
<style type="text/css">
	.st0{fill:#FFFFFF;}
</style>
<path class="st0" d="M408.3,134.9c-52.9-5.1-104.1-23.6-148.1-53.4c-2.5-1.7-5.9-1.7-8.4,0c-44,29.8-95.2,48.2-148.1,53.4
	c-3.7,0.4-6.6,3.4-6.8,7.2c-0.8,19.7-0.1,50.4,7.8,85.1c9,39.2,25.2,75.4,48.3,107.5c24.9,34.8,58.2,65.3,99,90.6
	c1.2,0.8,2.6,1.1,4,1.1c1.4,0,2.7-0.4,4-1.1c77.6-48.2,126.9-113.7,146.5-194.7c8.7-35.9,9.5-68,8.6-88.6
	C414.9,138.3,412,135.2,408.3,134.9z M391.8,227.1c-18.3,75.6-64,137.2-135.8,183c-37.3-23.8-67.8-52.1-90.8-84.1
	c-21.9-30.5-37.3-64.9-45.9-102.1c-6.8-29.5-8-56-7.7-74.7c51.4-6,101-24,144.3-52.4c43.3,28.4,92.9,46.4,144.3,52.4
	C400.6,168.6,399.2,196.4,391.8,227.1z"/>
<path class="st0" d="M503.3,401.1c-10.5-4.5-46.5-18.2-57.1-22.2c-3.9-1.4-8.2,0.5-9.6,4.4s0.5,8.2,4.4,9.6
	c8.9,3.3,43.3,16.4,52.2,20.1c-8.5,2.9-17,6-25.3,9.3c-3.3,1.3-5.8,3.8-7.1,7c-1.3,3.2-1.2,6.8,0.2,10c3.5,7.9,6.9,16,10.1,24.1
	c-26.2-11-52.3-19.9-79.7-27.2c-2.9-0.8-4.7-3.8-4-6.7l3.2-13.9c10.1,2.4,20.1,5.1,30,8c1.4,0.4,2.8,0.6,4.2,0.6
	c6.4,0,12.5-4.2,14.5-10.6l16.7-52c1.3-3.9,0.9-8.1-1-11.7c-1.9-3.7-5.2-6.3-9.2-7.5c-11.4-3.4-23-6.5-34.8-9.3
	c13.1-22.4,23.6-46.3,31.3-71.4c21.3-69,16.2-129.1,13-151.8c-1.4-9.7-9.5-16.8-19.3-16.9h-0.3c-60.3-1-115.3-19.9-163.5-56
	c-4.5-3.4-9.9-5.5-15.5-6.1c-0.6-0.1-1.1-0.1-1.7,0c-5.6,0.6-10.9,2.7-15.4,6.1C191.4,73.2,136.4,92,76.1,93h-0.4
	c-9.8,0.1-17.9,7.2-19.3,16.9c-3.2,22.7-8.3,82.8,13,151.8c7.7,25.1,18.2,48.9,31.3,71.4c-7,1.7-13.9,3.4-20.7,5.3
	c-4.7,1.3-9.4,2.6-14.1,4c-4,1.2-7.2,3.8-9.2,7.5c-1.9,3.6-2.3,7.8-1,11.7l16.7,52c2.1,6.4,8.1,10.6,14.5,10.6
	c1.4,0,2.8-0.2,4.2-0.6c9.9-2.9,20-5.6,30-8l3.2,13.9c0.7,3-1.1,6-4,6.7c-27.4,7.3-53.4,16.2-79.7,27.2c3.1-8.1,6.5-16.1,10.1-24.1
	c1.4-3.2,1.5-6.8,0.2-10s-3.8-5.7-7.1-7c-8.3-3.3-16.8-6.4-25.3-9.3c8.9-3.7,44.3-16.8,53.2-20.1c3.9-1.4,5.9-5.8,4.4-9.6
	c-1.4-3.9-5.8-5.9-9.6-4.4c-10.6,3.9-47.6,17.7-58.1,22.2c-5.5,2.4-8.9,7.6-8.6,13.3c0.3,5.2,3.6,9.5,8.7,11.2
	c9.3,3,18.6,6.4,27.6,9.9c-4,9-7.7,18.1-11.2,27.2c-1.9,4.9-0.7,10.2,3.1,13.8c2.5,2.4,5.8,3.6,9.1,3.6c1.8,0,3.7-0.4,5.5-1.2
	c26.9-11.5,53.5-20.7,81.6-28.2c10.8-2.9,17.3-13.7,14.8-24.6l-3.2-13.8c7.9-1.7,15.8-3.2,23.7-4.5c22.9,22.2,49.4,42.2,79.2,59.8
	c5.2,3,11.1,4.6,17.1,4.6c6,0,11.9-1.6,17.1-4.6c29.8-17.5,56.3-37.5,79.2-59.8c7.9,1.3,15.8,2.9,23.7,4.5l-3.2,13.8
	c-2.5,10.9,3.9,21.8,14.8,24.6c28.1,7.5,54.7,16.7,81.5,28.2c1.8,0.8,3.7,1.2,5.6,1.2c3.3,0,6.6-1.2,9.1-3.6c3.8-3.6,5-8.9,3.1-13.8
	c-3.4-9.1-7.2-18.2-11.2-27.2c9.1-3.5,18.4-6.9,27.6-9.9c5.1-1.7,8.4-5.9,8.7-11.2C512.3,408.8,508.9,403.6,503.3,401.1z
	 M441.6,356.9c0,0,0.1,0,0.2,0.1c0,0.1,0,0.1,0,0.2l-16.7,52c0,0.1-0.1,0.2-0.2,0.1c-19.7-5.8-39.8-10.7-59.9-14.4
	c8-8.6,15.5-17.4,22.5-26.6c5.4-7,10.5-14.2,15.3-21.6C415.9,349.7,428.9,353.1,441.6,356.9z M87.1,409.3c-0.1,0-0.2,0-0.2-0.1
	l-16.7-52c0,0,0-0.1,0-0.2c0.1-0.1,0.1-0.1,0.2-0.1c4.6-1.4,9.2-2.7,13.8-3.9c8.2-2.2,16.6-4.4,25-6.3c4.8,7.4,9.9,14.6,15.3,21.6
	c7,9.2,14.5,18,22.5,26.6C126.9,398.6,106.8,403.5,87.1,409.3z M265.4,454.7c-2.9,1.7-6.1,2.6-9.4,2.6c-3.3,0-6.6-0.9-9.4-2.6
	c-82.5-48.6-137.2-115-162.6-197.3c-20.4-66.1-15.5-123.6-12.4-145.3c0.3-2.3,2.2-4,4.6-4h0.4C140,107,198,87.2,248.7,49.1
	c2.1-1.6,4.6-2.6,7.3-3.1c2.6,0.4,5.1,1.4,7.3,3.1C314,87.2,372,107,435.6,108.1h0.4c2.3,0,4.2,1.7,4.6,4
	c3.1,21.7,7.9,79.2-12.4,145.3C402.7,339.7,347.9,406.1,265.4,454.7z"/>
</svg>
