<?xml version="1.0" encoding="utf-8"?>
<!-- Generator: Adobe Illustrator 21.0.0, SVG Export Plug-In . SVG Version: 6.00 Build 0)  -->
<svg version="1.1" id="Capa_1" xmlns="http://www.w3.org/2000/svg" xmlns:xlink="http://www.w3.org/1999/xlink" x="0px" y="0px"
	 viewBox="0 0 60 60" style="enable-background:new 0 0 60 60;" xml:space="preserve">
<style type="text/css">
	.st0{fill:#FFFFFF;}
</style>
<g>
	<path class="st0" d="M26.3,25.7c0.2,0.2,0.5,0.3,0.7,0.3s0.5-0.1,0.7-0.3l0.9-0.9c0.4,0.2,0.9,0.3,1.4,0.3s0.9-0.1,1.4-0.3l0.9,0.9
		c0.2,0.2,0.5,0.3,0.7,0.3s0.5-0.1,0.7-0.3c0.4-0.4,0.4-1,0-1.4l-0.9-0.9c0.4-0.9,0.4-1.9,0-2.7l0.9-0.9c0.4-0.4,0.4-1,0-1.4
		s-1-0.4-1.4,0l-0.9,0.9c-0.9-0.4-1.9-0.4-2.7,0l-0.9-0.9c-0.4-0.4-1-0.4-1.4,0s-0.4,1,0,1.4l0.9,0.9c-0.4,0.9-0.4,1.9,0,2.7
		l-0.9,0.9C25.9,24.7,25.9,25.3,26.3,25.7z M30.8,21.2c0.4,0.4,0.4,1.1,0,1.6c-0.4,0.4-1.1,0.4-1.6,0c-0.4-0.4-0.4-1.1,0-1.6
		c0.2-0.2,0.5-0.3,0.8-0.3S30.6,21,30.8,21.2z"/>
	<path class="st0" d="M59.8,26.7c-0.5-2.1-2.6-3.7-4.9-3.7c-2.4-3.7-6.4-6-10.8-6C42,12.3,36.3,9,30,9s-12,3.3-14.1,8
		c-4.4,0-8.4,2.3-10.8,6c-2.5,0-4.7,1.9-5,4.3C-0.3,29.5,1,31.7,3,32.6v9.5c0,1.8,1.3,3.4,3,3.8V50c0,0.6,0.4,1,1,1h3
		c0.4,0,0.8-0.2,0.9-0.6l1.7-4.4h34.6l1.7,4.4c0.2,0.4,0.5,0.6,0.9,0.6h3c0.6,0,1-0.4,1-1v-4.1c1.7-0.4,3-2,3-3.8v-9.5
		C59.2,31.6,60.5,29.2,59.8,26.7z M16,19c1.7,0,3,1.3,3,3c0,0.6,0.4,1,1,1s1-0.4,1-1c0-2.1-1.3-3.9-3.1-4.6C19.8,13.6,24.6,11,30,11
		s10.2,2.6,12.1,6.4C40.3,18.1,39,19.9,39,22c0,0.6,0.4,1,1,1s1-0.4,1-1c0-1.7,1.3-3,3-3c3.4,0,6.7,1.7,8.8,4.4
		c-0.6,0.2-1.1,0.5-1.5,0.9c0,0,0,0,0,0c-0.2,0.2-0.4,0.3-0.6,0.5c0,0-0.1,0.1-0.1,0.1c-0.1,0.2-0.3,0.3-0.4,0.5
		c0,0.1-0.1,0.1-0.1,0.2c-0.1,0.2-0.3,0.4-0.4,0.6c0,0.1-0.1,0.2-0.1,0.2c-0.1,0.2-0.2,0.4-0.2,0.6c0,0,0,0.1-0.1,0.1
		c-0.1,0.2-0.1,0.5-0.2,0.7c0,0.1,0,0.1,0,0.2c0,0.3-0.1,0.5-0.1,0.8v4.7c-6.2-2.1-12.9-2-19,0.4c-6.1-2.4-12.8-2.5-19-0.4v-4.7
		c0-0.3,0-0.5-0.1-0.8c0-0.1,0-0.1,0-0.2c0-0.3-0.1-0.5-0.2-0.7c0,0,0-0.1-0.1-0.1c-0.1-0.2-0.1-0.4-0.2-0.6c0-0.1-0.1-0.1-0.1-0.2
		c-0.1-0.2-0.2-0.4-0.4-0.6c0-0.1-0.1-0.1-0.1-0.1c-0.1-0.2-0.3-0.3-0.4-0.5c0,0-0.1-0.1-0.1-0.1c-0.6-0.6-1.3-1.1-2.1-1.4
		C9.3,20.7,12.6,19,16,19z M11.5,38c-0.3,0-0.5-0.2-0.5-0.5v-1.8c5.8-2.2,12.2-2.2,18,0V38H11.5z M31,35.7c5.8-2.2,12.2-2.2,18,0
		v1.8c0,0.3-0.2,0.5-0.5,0.5H31V35.7z M9.3,49H8v-3h2.5L9.3,49z M52,49h-1.3l-1.2-3H52V49z M55.7,30.9c-0.1,0-0.2,0.1-0.2,0.1H54
		c-0.6,0-1,0.4-1,1c0,0.6,0.4,1,1,1h1v9.1c0,1.1-0.9,1.9-1.9,1.9H53h-5H12H7H6.9C5.9,44,5,43.1,5,42.1V33h1c0.6,0,1-0.4,1-1
		c0-0.6-0.4-1-1-1H4.5c-0.1,0-0.2-0.1-0.2-0.1c-1.5-0.4-2.4-1.8-2.2-3.3C2.2,26.1,3.6,25,5.2,25c0.1,0,0.2,0,0.3,0c0,0,0,0,0,0
		c0.5,0,1,0.2,1.4,0.4c0,0,0,0,0,0c0.2,0.1,0.4,0.2,0.5,0.3c0,0,0.1,0.1,0.1,0.1C7.7,26,7.8,26.1,8,26.2c0.1,0.1,0.1,0.2,0.2,0.2
		c0.1,0.1,0.2,0.2,0.2,0.3c0.1,0.1,0.1,0.2,0.2,0.4c0,0.1,0.1,0.2,0.1,0.3c0.1,0.2,0.1,0.3,0.1,0.5c0,0.1,0,0.1,0.1,0.2
		C9,28.3,9,28.6,9,28.8V35v2.5V39c0,0.6,0.4,1,1,1h1.5H30h18.5H50c0.6,0,1-0.4,1-1v-1.5V35v-6.2c0-0.3,0-0.5,0.1-0.8
		c0-0.1,0-0.1,0.1-0.2c0-0.2,0.1-0.3,0.2-0.5c0-0.1,0.1-0.2,0.1-0.3c0.1-0.1,0.1-0.3,0.2-0.4c0.1-0.1,0.2-0.2,0.2-0.3
		c0.1-0.1,0.1-0.2,0.2-0.2c0.1-0.1,0.2-0.2,0.4-0.3c0,0,0.1-0.1,0.1-0.1c0.2-0.1,0.3-0.2,0.5-0.3c0,0,0,0,0,0
		c0.4-0.2,0.9-0.3,1.4-0.4c0,0,0,0,0,0c0.1,0,0.2,0,0.3,0c1.5,0,2.7,0.9,3.1,2.2l0,0C58.4,29,57.2,30.5,55.7,30.9z"/>
</g>
</svg>
